# xmcd
#
# Track frame offsets:
#	150
#	23232
#	36426
#	56797
#	69824
#	83138
#	98661
#	122391
#	137785
#	155636
#	169070
#	189753
#
# Disc length: 2729 seconds
#
# Revision: 0
# Processed by: cddbd v1.5.2PL0 Copyright (c) Steve Scherf et al.
# Submitted via: audiograbber 1.83.01
#
DISCID=950aa70c
DTITLE=Blue Moon - Blue Moon 001
DYEAR=2006
DGENRE=Country
TTITLE0=Daddy´s Dancing Topless - Roger William
TTITLE1=Mirror In My Mind - Roger Eydenburgh
TTITLE2=Let Me Cry - Rogersong Band
TTITLE3=Trashed - Roger Eydenburgh
TTITLE4=That´s The Way Love Goes - Roger Eydenburgh
TTITLE5=She´s Tough - Rogersong Band
TTITLE6=I Need, Good Loving - Rogersong Band
TTITLE7=Down At The Club - Rogersong Band
TTITLE8=Big Dogs - Roger William
TTITLE9=Sinjoro Docktoro - Rogersong Band
TTITLE10=When Missles Fly - Rogersong Band
TTITLE11=I Love America - Rogersong Band
EXTD=
EXTT0=
EXTT1=
EXTT2=
EXTT3=
EXTT4=
EXTT5=
EXTT6=
EXTT7=
EXTT8=
EXTT9=
EXTT10=
EXTT11=
PLAYORDER=
